<svg xmlns="http://www.w3.org/2000/svg" xmlns:xlink="http://www.w3.org/1999/xlink" width="571" zoomAndPan="magnify" viewBox="144 141 571 548" height="548" preserveAspectRatio="xMidYMid meet" version="1.0"><defs><clipPath id="97c2e04d27"><path d="M 540 151.203125 L 715.316406 151.203125 L 715.316406 385 L 540 385 Z M 540 151.203125 " clip-rule="nonzero"/></clipPath><clipPath id="5ba45c111b"><path d="M 519.398438 334.539062 L 657.835938 136.09375 L 785.046875 224.835938 L 646.609375 423.28125 Z M 519.398438 334.539062 " clip-rule="nonzero"/></clipPath><clipPath id="931da5b4a3"><path d="M 519.398438 334.539062 L 657.835938 136.09375 L 785.046875 224.835938 L 646.609375 423.28125 Z M 519.398438 334.539062 " clip-rule="nonzero"/></clipPath><clipPath id="6c231831cb"><path d="M 519.699219 334.828125 L 658.136719 136.382812 L 785.34375 225.125 L 646.90625 423.570312 Z M 519.699219 334.828125 " clip-rule="nonzero"/></clipPath></defs><path fill="#000000" d="M 618.53125 385.410156 C 619.464844 395.027344 620.082031 405.261719 620.082031 415.5 C 620.082031 461.101562 610.777344 501.117188 592.476562 535.550781 C 574.171875 569.984375 549.046875 596.660156 517.40625 614.964844 C 485.761719 633.265625 449.78125 642.570312 410.074219 642.570312 C 370.367188 642.570312 334.382812 633.265625 302.429688 614.964844 C 270.789062 596.660156 245.664062 569.984375 227.359375 535.550781 C 209.058594 501.117188 199.75 461.101562 199.75 415.5 C 199.75 369.898438 209.058594 330.191406 227.359375 295.757812 C 245.664062 261.324219 270.789062 235.269531 302.429688 216.65625 C 334.070312 198.355469 370.054688 189.046875 410.074219 189.046875 C 450.089844 189.046875 485.761719 198.355469 517.40625 216.65625 C 541.601562 230.613281 561.765625 249.226562 578.207031 272.492188 C 579.445312 251.398438 585.03125 231.546875 595.886719 214.175781 C 580.996094 199.59375 564.246094 186.875 545.632812 176.328125 C 505.308594 153.0625 460.015625 141.273438 409.761719 141.273438 C 359.507812 141.273438 315.148438 153.0625 274.511719 176.328125 C 234.183594 199.59375 202.234375 232.167969 178.96875 273.734375 C 155.703125 315.300781 144.222656 362.765625 144.222656 415.1875 C 144.222656 467.613281 156.011719 515.074219 178.96875 556.644531 C 202.234375 598.210938 234.183594 630.785156 274.511719 654.050781 C 314.839844 677.316406 359.820312 688.792969 409.761719 688.792969 C 459.707031 688.792969 504.996094 677.003906 545.632812 654.050781 C 585.960938 630.785156 617.914062 598.210938 640.867188 556.644531 C 663.824219 515.074219 675.300781 467.613281 675.300781 415.1875 C 675.300781 362.765625 674.679688 391.304688 673.441406 379.515625 C 657.308594 388.820312 635.90625 391.613281 618.53125 385.097656 Z M 618.53125 385.410156 " fill-opacity="1" fill-rule="nonzero"/><g clip-path="url(#97c2e04d27)"><g clip-path="url(#5ba45c111b)"><g clip-path="url(#931da5b4a3)"><g clip-path="url(#6c231831cb)"><path fill="#6d8157" d="M 556.179688 353.769531 C 601.78125 366.175781 654.207031 352.835938 654.207031 352.835938 C 618.53125 372.691406 584.101562 366.175781 584.101562 366.175781 C 621.324219 396.578125 680.265625 393.164062 715.316406 323.675781 C 694.222656 339.1875 615.429688 302.273438 581.929688 349.425781 C 573.863281 352.527344 564.246094 350.046875 560.214844 349.113281 C 591.234375 318.09375 631.5625 271.871094 650.792969 232.167969 C 650.792969 232.167969 641.488281 265.359375 582.546875 333.605469 C 725.246094 308.476562 677.164062 176.019531 679.644531 151.820312 C 648.933594 205.179688 623.804688 187.1875 596.816406 225.03125 C 566.726562 266.910156 590.304688 355.9375 540.050781 349.425781 L 556.800781 354.078125 Z M 556.179688 353.769531 " fill-opacity="1" fill-rule="evenodd"/></g></g></g></g></svg>