<svg xmlns="http://www.w3.org/2000/svg" xmlns:xlink="http://www.w3.org/1999/xlink" width="500" zoomAndPan="magnify" viewBox="0 0 375 374.999991" height="500" preserveAspectRatio="xMidYMid meet" version="1.0"><defs><g/><clipPath id="a07dac94e7"><path d="M 122.5 149.527344 L 152.5 149.527344 L 152.5 186.277344 L 122.5 186.277344 Z M 122.5 149.527344 " clip-rule="nonzero"/></clipPath><clipPath id="b0aa6b40f6"><path d="M 0.5 0.527344 L 30.5 0.527344 L 30.5 37.253906 L 0.5 37.253906 Z M 0.5 0.527344 " clip-rule="nonzero"/></clipPath><clipPath id="9edfd155af"><rect x="0" width="31" y="0" height="38"/></clipPath><clipPath id="9104212e6e"><rect x="0" width="255" y="0" height="102"/></clipPath></defs><g clip-path="url(#a07dac94e7)"><g transform="matrix(1, 0, 0, 1, 122, 149)"><g clip-path="url(#9edfd155af)"><g clip-path="url(#b0aa6b40f6)"><path fill="#000000" d="M -4.019531 0.523438 L 2.113281 7.085938 L 8.242188 0.523438 M 22.878906 0.523438 L 29.011719 7.085938 L 35.144531 0.523438 Z M 42.378906 15.527344 L 40.683594 17.335938 L 35.980469 22.371094 L 32.859375 19.03125 L 42.378906 8.851562 L 42.378906 0.738281 L 40.683594 2.550781 L 29.070312 14.976562 L 17.457031 2.550781 L 15.5625 0.523438 L 13.667969 2.550781 L 2.050781 14.976562 L -9.5625 2.550781 L -11.253906 0.738281 L -11.253906 8.851562 L -1.738281 19.03125 L -4.859375 22.371094 L -9.558594 17.335938 L -11.253906 15.527344 L -11.253906 23.632812 L -8.644531 26.425781 L -11.253906 29.210938 L -11.253906 37.253906 L -11.1875 37.253906 L 15.5625 8.632812 L 42.3125 37.253906 L 42.378906 37.253906 L 42.378906 29.210938 L 39.769531 26.425781 L 42.378906 23.632812 Z M 34.25 35.304688 L 17.457031 17.335938 L 15.5625 15.308594 L 13.667969 17.335938 L -3.125 35.304688 L -4.949219 37.253906 L 2.632812 37.253906 L 15.5625 23.421875 L 28.492188 37.253906 L 36.074219 37.253906 Z M 21.695312 37.253906 L 15.5625 30.691406 L 9.429688 37.253906 Z M 21.695312 37.253906 " fill-opacity="1" fill-rule="evenodd"/></g></g></g></g><g transform="matrix(1, 0, 0, 1, 63, 114)"><g clip-path="url(#9104212e6e)"><g fill="#000000" fill-opacity="1"><g transform="translate(0.774849, 76.325752)"><g><path d="M 47.96875 -50.703125 L 30.40625 -16.765625 L 30.40625 0 L 18.0625 0 L 18.0625 -16.765625 L 0.5 -50.703125 L 14.515625 -50.703125 L 24.34375 -29.46875 L 34.09375 -50.703125 Z M 47.96875 -50.703125 "/></g></g></g><g fill="#000000" fill-opacity="1"><g transform="translate(45.69699, 76.325752)"><g><path d="M 28.453125 0.5 C 23.691406 0.5 19.320312 -0.601562 15.34375 -2.8125 C 11.375 -5.03125 8.222656 -8.125 5.890625 -12.09375 C 3.554688 -16.070312 2.390625 -20.539062 2.390625 -25.5 C 2.390625 -30.457031 3.554688 -34.910156 5.890625 -38.859375 C 8.222656 -42.804688 11.375 -45.890625 15.34375 -48.109375 C 19.320312 -50.328125 23.691406 -51.4375 28.453125 -51.4375 C 33.222656 -51.4375 37.59375 -50.328125 41.5625 -48.109375 C 45.539062 -45.890625 48.671875 -42.804688 50.953125 -38.859375 C 53.242188 -34.910156 54.390625 -30.457031 54.390625 -25.5 C 54.390625 -20.539062 53.234375 -16.070312 50.921875 -12.09375 C 48.609375 -8.125 45.476562 -5.03125 41.53125 -2.8125 C 37.582031 -0.601562 33.222656 0.5 28.453125 0.5 Z M 28.453125 -10.765625 C 32.503906 -10.765625 35.742188 -12.113281 38.171875 -14.8125 C 40.609375 -17.507812 41.828125 -21.070312 41.828125 -25.5 C 41.828125 -29.976562 40.609375 -33.550781 38.171875 -36.21875 C 35.742188 -38.894531 32.503906 -40.234375 28.453125 -40.234375 C 24.367188 -40.234375 21.109375 -38.90625 18.671875 -36.25 C 16.242188 -33.601562 15.03125 -30.019531 15.03125 -25.5 C 15.03125 -21.019531 16.242188 -17.441406 18.671875 -14.765625 C 21.109375 -12.097656 24.367188 -10.765625 28.453125 -10.765625 Z M 28.453125 -10.765625 "/></g></g></g><g fill="#000000" fill-opacity="1"><g transform="translate(98.924778, 76.325752)"><g><path d="M 22.828125 0.5 C 19.117188 0.5 15.796875 -0.0976562 12.859375 -1.296875 C 9.921875 -2.503906 7.570312 -4.285156 5.8125 -6.640625 C 4.050781 -9.003906 3.125 -11.847656 3.03125 -15.171875 L 16.1875 -15.171875 C 16.375 -13.296875 17.019531 -11.863281 18.125 -10.875 C 19.238281 -9.882812 20.6875 -9.390625 22.46875 -9.390625 C 24.289062 -9.390625 25.734375 -9.8125 26.796875 -10.65625 C 27.859375 -11.5 28.390625 -12.664062 28.390625 -14.15625 C 28.390625 -15.40625 27.96875 -16.4375 27.125 -17.25 C 26.28125 -18.070312 25.242188 -18.75 24.015625 -19.28125 C 22.785156 -19.8125 21.039062 -20.414062 18.78125 -21.09375 C 15.507812 -22.101562 12.835938 -23.113281 10.765625 -24.125 C 8.691406 -25.132812 6.90625 -26.625 5.40625 -28.59375 C 3.914062 -30.570312 3.171875 -33.148438 3.171875 -36.328125 C 3.171875 -41.046875 4.878906 -44.742188 8.296875 -47.421875 C 11.722656 -50.097656 16.179688 -51.4375 21.671875 -51.4375 C 27.253906 -51.4375 31.753906 -50.097656 35.171875 -47.421875 C 38.597656 -44.742188 40.429688 -41.023438 40.671875 -36.265625 L 27.296875 -36.265625 C 27.203125 -37.898438 26.601562 -39.1875 25.5 -40.125 C 24.394531 -41.0625 22.972656 -41.53125 21.234375 -41.53125 C 19.742188 -41.53125 18.539062 -41.132812 17.625 -40.34375 C 16.707031 -39.550781 16.25 -38.40625 16.25 -36.90625 C 16.25 -35.269531 17.019531 -33.992188 18.5625 -33.078125 C 20.101562 -32.160156 22.507812 -31.175781 25.78125 -30.125 C 29.0625 -29.007812 31.722656 -27.945312 33.765625 -26.9375 C 35.816406 -25.925781 37.585938 -24.457031 39.078125 -22.53125 C 40.566406 -20.601562 41.3125 -18.125 41.3125 -15.09375 C 41.3125 -12.207031 40.578125 -9.582031 39.109375 -7.21875 C 37.640625 -4.863281 35.507812 -2.988281 32.71875 -1.59375 C 29.925781 -0.195312 26.628906 0.5 22.828125 0.5 Z M 22.828125 0.5 "/></g></g></g><g fill="#000000" fill-opacity="1"><g transform="translate(139.802425, 76.325752)"><g><path d="M 22.828125 0.5 C 19.117188 0.5 15.796875 -0.0976562 12.859375 -1.296875 C 9.921875 -2.503906 7.570312 -4.285156 5.8125 -6.640625 C 4.050781 -9.003906 3.125 -11.847656 3.03125 -15.171875 L 16.1875 -15.171875 C 16.375 -13.296875 17.019531 -11.863281 18.125 -10.875 C 19.238281 -9.882812 20.6875 -9.390625 22.46875 -9.390625 C 24.289062 -9.390625 25.734375 -9.8125 26.796875 -10.65625 C 27.859375 -11.5 28.390625 -12.664062 28.390625 -14.15625 C 28.390625 -15.40625 27.96875 -16.4375 27.125 -17.25 C 26.28125 -18.070312 25.242188 -18.75 24.015625 -19.28125 C 22.785156 -19.8125 21.039062 -20.414062 18.78125 -21.09375 C 15.507812 -22.101562 12.835938 -23.113281 10.765625 -24.125 C 8.691406 -25.132812 6.90625 -26.625 5.40625 -28.59375 C 3.914062 -30.570312 3.171875 -33.148438 3.171875 -36.328125 C 3.171875 -41.046875 4.878906 -44.742188 8.296875 -47.421875 C 11.722656 -50.097656 16.179688 -51.4375 21.671875 -51.4375 C 27.253906 -51.4375 31.753906 -50.097656 35.171875 -47.421875 C 38.597656 -44.742188 40.429688 -41.023438 40.671875 -36.265625 L 27.296875 -36.265625 C 27.203125 -37.898438 26.601562 -39.1875 25.5 -40.125 C 24.394531 -41.0625 22.972656 -41.53125 21.234375 -41.53125 C 19.742188 -41.53125 18.539062 -41.132812 17.625 -40.34375 C 16.707031 -39.550781 16.25 -38.40625 16.25 -36.90625 C 16.25 -35.269531 17.019531 -33.992188 18.5625 -33.078125 C 20.101562 -32.160156 22.507812 -31.175781 25.78125 -30.125 C 29.0625 -29.007812 31.722656 -27.945312 33.765625 -26.9375 C 35.816406 -25.925781 37.585938 -24.457031 39.078125 -22.53125 C 40.566406 -20.601562 41.3125 -18.125 41.3125 -15.09375 C 41.3125 -12.207031 40.578125 -9.582031 39.109375 -7.21875 C 37.640625 -4.863281 35.507812 -2.988281 32.71875 -1.59375 C 29.925781 -0.195312 26.628906 0.5 22.828125 0.5 Z M 22.828125 0.5 "/></g></g></g><g fill="#000000" fill-opacity="1"><g transform="translate(180.680072, 76.325752)"><g><path d="M 16.828125 -40.8125 L 16.828125 -30.5625 L 33.375 -30.5625 L 33.375 -21.015625 L 16.828125 -21.015625 L 16.828125 -9.890625 L 35.546875 -9.890625 L 35.546875 0 L 4.484375 0 L 4.484375 -50.703125 L 35.546875 -50.703125 L 35.546875 -40.8125 Z M 16.828125 -40.8125 "/></g></g></g><g fill="#000000" fill-opacity="1"><g transform="translate(216.213218, 76.325752)"><g><path d="M 37.484375 -50.703125 L 37.484375 -40.8125 L 16.828125 -40.8125 L 16.828125 -30.125 L 32.28125 -30.125 L 32.28125 -20.515625 L 16.828125 -20.515625 L 16.828125 0 L 4.484375 0 L 4.484375 -50.703125 Z M 37.484375 -50.703125 "/></g></g></g></g></g><g fill="#000000" fill-opacity="1"><g transform="translate(114.928686, 214.844796)"><g><path d="M 12.8125 -3.96875 C 12.8125 -2.601562 12.257812 -1.570312 11.15625 -0.875 C 10.257812 -0.289062 9.082031 0 7.625 0 L 0.5625 0 L 0.5625 -0.546875 L 2.578125 -0.546875 L 2.578125 -14 L 0.5625 -14 L 0.5625 -14.546875 L 7.4375 -14.546875 C 8.644531 -14.546875 9.710938 -14.28125 10.640625 -13.75 C 11.734375 -13.15625 12.28125 -12.273438 12.28125 -11.109375 C 12.28125 -9.460938 11.238281 -8.390625 9.15625 -7.890625 C 10.132812 -7.660156 10.984375 -7.21875 11.703125 -6.5625 C 12.441406 -5.820312 12.8125 -4.957031 12.8125 -3.96875 Z M 9.859375 -11.296875 C 9.859375 -13.097656 9.050781 -14 7.4375 -14 L 5.03125 -14 L 5.03125 -8.109375 L 7.4375 -8.109375 C 8.320312 -8.109375 8.960938 -8.359375 9.359375 -8.859375 C 9.691406 -9.285156 9.859375 -9.976562 9.859375 -10.9375 Z M 10.296875 -4.21875 C 10.296875 -6.457031 9.34375 -7.578125 7.4375 -7.578125 L 5.03125 -7.578125 L 5.03125 -0.546875 L 7.4375 -0.546875 C 8.476562 -0.546875 9.210938 -0.804688 9.640625 -1.328125 C 10.078125 -1.859375 10.296875 -2.648438 10.296875 -3.703125 Z M 10.296875 -4.21875 "/></g></g></g><g fill="#000000" fill-opacity="1"><g transform="translate(134.718232, 214.844796)"><g><path d="M 15.421875 -7.21875 C 15.421875 -5.195312 14.695312 -3.421875 13.25 -1.890625 C 11.820312 -0.359375 10.109375 0.40625 8.109375 0.40625 C 6.140625 0.40625 4.421875 -0.375 2.953125 -1.9375 C 1.535156 -3.4375 0.828125 -5.195312 0.828125 -7.21875 C 0.828125 -9.226562 1.539062 -10.992188 2.96875 -12.515625 C 4.40625 -14.035156 6.117188 -14.796875 8.109375 -14.796875 C 10.109375 -14.796875 11.820312 -14.035156 13.25 -12.515625 C 14.695312 -10.992188 15.421875 -9.226562 15.421875 -7.21875 Z M 12.375 -8.28125 C 12.375 -10.125 12.128906 -11.5 11.640625 -12.40625 C 10.960938 -13.601562 9.785156 -14.203125 8.109375 -14.203125 C 6.472656 -14.203125 5.316406 -13.59375 4.640625 -12.375 C 4.128906 -11.457031 3.875 -10.09375 3.875 -8.28125 L 3.875 -6.125 C 3.875 -2.164062 5.285156 -0.1875 8.109375 -0.1875 C 10.953125 -0.1875 12.375 -2.164062 12.375 -6.125 Z M 12.375 -8.28125 "/></g></g></g><g fill="#000000" fill-opacity="1"><g transform="translate(156.671157, 214.844796)"><g><path d="M 12.515625 -3.65625 C 12.515625 -2.269531 12.046875 -1.222656 11.109375 -0.515625 C 10.273438 0.0976562 9.148438 0.40625 7.734375 0.40625 C 6.234375 0.40625 5.023438 0.101562 4.109375 -0.5 C 2.972656 -1.1875 2.40625 -2.238281 2.40625 -3.65625 L 2.40625 -14 L 0.40625 -14 L 0.40625 -14.546875 L 6.859375 -14.546875 L 6.859375 -14 L 4.875 -14 L 4.875 -3.65625 C 4.875 -2.550781 5.171875 -1.695312 5.765625 -1.09375 C 6.359375 -0.488281 7.195312 -0.1875 8.28125 -0.1875 C 9.351562 -0.1875 10.226562 -0.492188 10.90625 -1.109375 C 11.582031 -1.722656 11.921875 -2.570312 11.921875 -3.65625 L 11.921875 -14 L 9.921875 -14 L 9.921875 -14.546875 L 14.5 -14.546875 L 14.5 -14 L 12.515625 -14 Z M 12.515625 -3.65625 "/></g></g></g><g fill="#000000" fill-opacity="1"><g transform="translate(177.384653, 214.844796)"><g><path d="M 13.21875 -10.265625 C 13.0625 -11.203125 12.789062 -12.003906 12.40625 -12.671875 C 11.863281 -13.554688 11.1875 -14 10.375 -14 L 8.484375 -14 L 8.484375 -0.546875 L 10.484375 -0.546875 L 10.484375 0 L 4.03125 0 L 4.03125 -0.546875 L 6.015625 -0.546875 L 6.015625 -14 L 4.125 -14 C 3.3125 -14 2.632812 -13.554688 2.09375 -12.671875 C 1.707031 -12.003906 1.4375 -11.203125 1.28125 -10.265625 L 0.609375 -10.265625 L 0.96875 -14.09375 C 1 -14.394531 1.1875 -14.546875 1.53125 -14.546875 L 12.984375 -14.546875 C 13.328125 -14.546875 13.515625 -14.394531 13.546875 -14.09375 L 13.90625 -10.265625 Z M 13.21875 -10.265625 "/></g></g></g><g fill="#000000" fill-opacity="1"><g transform="translate(197.669979, 214.844796)"><g><path d="M 0.90625 -0.546875 L 2.890625 -0.546875 L 2.890625 -14 L 0.90625 -14 L 0.90625 -14.546875 L 7.34375 -14.546875 L 7.34375 -14 L 5.34375 -14 L 5.34375 -0.546875 L 7.34375 -0.546875 L 7.34375 0 L 0.90625 0 Z M 0.90625 -0.546875 "/></g></g></g><g fill="#000000" fill-opacity="1"><g transform="translate(211.825725, 214.844796)"><g><path d="M 15.421875 -7.1875 C 15.421875 -5.445312 14.875 -3.867188 13.78125 -2.453125 C 12.675781 -1.015625 11.304688 -0.109375 9.671875 0.265625 L 9.671875 0.65625 C 9.671875 3.175781 10.875 4.4375 13.28125 4.4375 C 13.488281 4.4375 13.59375 4.519531 13.59375 4.6875 C 13.59375 4.84375 13.488281 4.921875 13.28125 4.921875 C 11.132812 4.921875 9.601562 4.691406 8.6875 4.234375 C 7.476562 3.648438 6.789062 2.488281 6.625 0.75 L 6.578125 0.265625 C 4.929688 -0.117188 3.554688 -1.023438 2.453125 -2.453125 C 1.367188 -3.898438 0.828125 -5.476562 0.828125 -7.1875 C 0.828125 -9.207031 1.539062 -10.972656 2.96875 -12.484375 C 4.382812 -14.023438 6.097656 -14.796875 8.109375 -14.796875 C 10.109375 -14.796875 11.820312 -14.023438 13.25 -12.484375 C 14.695312 -10.972656 15.421875 -9.207031 15.421875 -7.1875 Z M 12.375 -8.25 C 12.375 -10.082031 12.128906 -11.46875 11.640625 -12.40625 C 10.972656 -13.601562 9.796875 -14.203125 8.109375 -14.203125 C 6.472656 -14.203125 5.316406 -13.585938 4.640625 -12.359375 C 4.128906 -11.441406 3.875 -10.070312 3.875 -8.25 L 3.875 -6.109375 C 3.875 -2.128906 5.285156 -0.140625 8.109375 -0.140625 C 10.953125 -0.140625 12.375 -2.128906 12.375 -6.109375 Z M 12.375 -8.25 "/></g></g></g><g fill="#000000" fill-opacity="1"><g transform="translate(233.530771, 214.844796)"><g><path d="M 12.515625 -3.65625 C 12.515625 -2.269531 12.046875 -1.222656 11.109375 -0.515625 C 10.273438 0.0976562 9.148438 0.40625 7.734375 0.40625 C 6.234375 0.40625 5.023438 0.101562 4.109375 -0.5 C 2.972656 -1.1875 2.40625 -2.238281 2.40625 -3.65625 L 2.40625 -14 L 0.40625 -14 L 0.40625 -14.546875 L 6.859375 -14.546875 L 6.859375 -14 L 4.875 -14 L 4.875 -3.65625 C 4.875 -2.550781 5.171875 -1.695312 5.765625 -1.09375 C 6.359375 -0.488281 7.195312 -0.1875 8.28125 -0.1875 C 9.351562 -0.1875 10.226562 -0.492188 10.90625 -1.109375 C 11.582031 -1.722656 11.921875 -2.570312 11.921875 -3.65625 L 11.921875 -14 L 9.921875 -14 L 9.921875 -14.546875 L 14.5 -14.546875 L 14.5 -14 L 12.515625 -14 Z M 12.515625 -3.65625 "/></g></g></g><g fill="#000000" fill-opacity="1"><g transform="translate(254.244267, 214.844796)"><g><path d="M 12.46875 -0.796875 C 12.46875 -0.265625 12.210938 0 11.703125 0 L 0.703125 0 L 0.703125 -0.546875 L 2.65625 -0.546875 L 2.65625 -14 L 0.65625 -14 L 0.65625 -14.546875 L 11.140625 -14.546875 C 11.609375 -14.546875 11.84375 -14.34375 11.84375 -13.9375 L 11.84375 -10.6875 C 11.84375 -10.425781 11.75 -10.296875 11.5625 -10.296875 C 11.382812 -10.296875 11.285156 -10.429688 11.265625 -10.703125 C 11.222656 -11.515625 11.015625 -12.222656 10.640625 -12.828125 C 10.171875 -13.609375 9.472656 -14 8.546875 -14 L 5.125 -14 L 5.125 -7.9375 L 6.859375 -7.9375 C 7.429688 -7.9375 7.835938 -8.125 8.078125 -8.5 C 8.128906 -8.59375 8.191406 -8.75 8.265625 -8.96875 C 8.347656 -9.1875 8.425781 -9.46875 8.5 -9.8125 C 8.570312 -10.0625 8.660156 -10.1875 8.765625 -10.1875 C 8.929688 -10.1875 9.015625 -10.066406 9.015625 -9.828125 L 9.015625 -5.5 C 9.015625 -5.25 8.929688 -5.125 8.765625 -5.125 C 8.660156 -5.125 8.523438 -5.382812 8.359375 -5.90625 C 8.304688 -6.070312 8.253906 -6.238281 8.203125 -6.40625 C 8.160156 -6.570312 8.109375 -6.738281 8.046875 -6.90625 C 7.828125 -7.226562 7.429688 -7.390625 6.859375 -7.390625 L 5.125 -7.390625 L 5.125 -0.546875 L 8.75 -0.546875 C 9.726562 -0.546875 10.445312 -0.867188 10.90625 -1.515625 C 11.257812 -2.023438 11.570312 -2.878906 11.84375 -4.078125 C 11.914062 -4.421875 12.035156 -4.59375 12.203125 -4.59375 C 12.378906 -4.59375 12.46875 -4.390625 12.46875 -3.984375 Z M 12.46875 -0.796875 "/></g></g></g></svg>