<svg xmlns="http://www.w3.org/2000/svg" xmlns:xlink="http://www.w3.org/1999/xlink" width="500" zoomAndPan="magnify" viewBox="0 0 375 374.999991" height="500" preserveAspectRatio="xMidYMid meet" version="1.0"><defs><g/><clipPath id="9c9deba091"><path d="M 144.492188 166.03125 L 164.742188 166.03125 L 164.742188 190.78125 L 144.492188 190.78125 Z M 144.492188 166.03125 " clip-rule="nonzero"/></clipPath><clipPath id="536c11e2d1"><path d="M 0.492188 0.125 L 20.742188 0.125 L 20.742188 24.78125 L 0.492188 24.78125 Z M 0.492188 0.125 " clip-rule="nonzero"/></clipPath><clipPath id="aef5dcd6c1"><rect x="0" width="21" y="0" height="25"/></clipPath><clipPath id="8074812bac"><path d="M 0.199219 17 L 33 17 L 33 52 L 0.199219 52 Z M 0.199219 17 " clip-rule="nonzero"/></clipPath><clipPath id="8497dbfe46"><rect x="0" width="187" y="0" height="68"/></clipPath><clipPath id="8dae3e5ad8"><rect x="0" width="121" y="0" height="24"/></clipPath></defs><g clip-path="url(#9c9deba091)"><g transform="matrix(1, 0, 0, 1, 144, 166)"><g clip-path="url(#aef5dcd6c1)"><g clip-path="url(#536c11e2d1)"><path fill="#000000" d="M -2.570312 0.03125 L 1.578125 4.46875 L 5.726562 0.03125 M 15.628906 0.03125 L 19.773438 4.46875 L 23.921875 0.03125 Z M 28.816406 10.179688 L 27.671875 11.402344 L 24.488281 14.808594 L 22.378906 12.550781 L 28.816406 5.664062 L 28.816406 0.175781 L 27.671875 1.402344 L 19.816406 9.808594 L 11.957031 1.402344 L 10.675781 0.03125 L 9.394531 1.402344 L 1.539062 9.808594 L -6.316406 1.402344 L -7.460938 0.175781 L -7.460938 5.664062 L -1.027344 12.550781 L -3.136719 14.808594 L -6.316406 11.402344 L -7.460938 10.179688 L -7.460938 15.664062 L -5.699219 17.550781 L -7.460938 19.4375 L -7.460938 24.875 L -7.417969 24.875 L 10.675781 5.515625 L 28.769531 24.875 L 28.816406 24.875 L 28.816406 19.4375 L 27.054688 17.550781 L 28.816406 15.664062 Z M 23.316406 23.558594 L 11.957031 11.402344 L 10.675781 10.03125 L 9.394531 11.402344 L -1.964844 23.558594 L -3.199219 24.875 L 1.929688 24.875 L 10.675781 15.519531 L 19.421875 24.875 L 24.550781 24.875 Z M 14.824219 24.875 L 10.675781 20.4375 L 6.527344 24.875 Z M 14.824219 24.875 " fill-opacity="1" fill-rule="evenodd"/></g></g></g></g><g transform="matrix(1, 0, 0, 1, 103, 143)"><g clip-path="url(#8497dbfe46)"><g clip-path="url(#8074812bac)"><g fill="#000000" fill-opacity="1"><g transform="translate(0.380035, 51.126314)"><g><path d="M 31.65625 -33.46875 L 20.0625 -11.0625 L 20.0625 0 L 11.921875 0 L 11.921875 -11.0625 L 0.328125 -33.46875 L 9.578125 -33.46875 L 16.0625 -19.453125 L 22.5 -33.46875 Z M 31.65625 -33.46875 "/></g></g></g></g><g fill="#000000" fill-opacity="1"><g transform="translate(33.317855, 51.126314)"><g><path d="M 18.78125 0.328125 C 15.632812 0.328125 12.75 -0.398438 10.125 -1.859375 C 7.507812 -3.316406 5.429688 -5.359375 3.890625 -7.984375 C 2.347656 -10.609375 1.578125 -13.554688 1.578125 -16.828125 C 1.578125 -20.097656 2.347656 -23.035156 3.890625 -25.640625 C 5.429688 -28.253906 7.507812 -30.289062 10.125 -31.75 C 12.75 -33.207031 15.632812 -33.9375 18.78125 -33.9375 C 21.925781 -33.9375 24.8125 -33.207031 27.4375 -31.75 C 30.0625 -30.289062 32.125 -28.253906 33.625 -25.640625 C 35.132812 -23.035156 35.890625 -20.097656 35.890625 -16.828125 C 35.890625 -13.554688 35.128906 -10.609375 33.609375 -7.984375 C 32.085938 -5.359375 30.019531 -3.316406 27.40625 -1.859375 C 24.800781 -0.398438 21.925781 0.328125 18.78125 0.328125 Z M 18.78125 -7.109375 C 21.445312 -7.109375 23.582031 -7.992188 25.1875 -9.765625 C 26.800781 -11.546875 27.609375 -13.898438 27.609375 -16.828125 C 27.609375 -19.785156 26.800781 -22.144531 25.1875 -23.90625 C 23.582031 -25.664062 21.445312 -26.546875 18.78125 -26.546875 C 16.082031 -26.546875 13.929688 -25.671875 12.328125 -23.921875 C 10.722656 -22.179688 9.921875 -19.816406 9.921875 -16.828125 C 9.921875 -13.867188 10.722656 -11.507812 12.328125 -9.75 C 13.929688 -7.988281 16.082031 -7.109375 18.78125 -7.109375 Z M 18.78125 -7.109375 "/></g></g></g><g fill="#000000" fill-opacity="1"><g transform="translate(71.737343, 51.126314)"><g><path d="M 15.0625 0.328125 C 12.613281 0.328125 10.421875 -0.0664062 8.484375 -0.859375 C 6.546875 -1.648438 4.992188 -2.820312 3.828125 -4.375 C 2.671875 -5.9375 2.0625 -7.816406 2 -10.015625 L 10.671875 -10.015625 C 10.804688 -8.773438 11.238281 -7.828125 11.96875 -7.171875 C 12.695312 -6.523438 13.648438 -6.203125 14.828125 -6.203125 C 16.035156 -6.203125 16.988281 -6.476562 17.6875 -7.03125 C 18.382812 -7.582031 18.734375 -8.351562 18.734375 -9.34375 C 18.734375 -10.164062 18.453125 -10.847656 17.890625 -11.390625 C 17.335938 -11.929688 16.65625 -12.375 15.84375 -12.71875 C 15.039062 -13.070312 13.890625 -13.472656 12.390625 -13.921875 C 10.234375 -14.585938 8.46875 -15.253906 7.09375 -15.921875 C 5.726562 -16.585938 4.550781 -17.570312 3.5625 -18.875 C 2.582031 -20.175781 2.09375 -21.878906 2.09375 -23.984375 C 2.09375 -27.097656 3.21875 -29.535156 5.46875 -31.296875 C 7.726562 -33.054688 10.671875 -33.9375 14.296875 -33.9375 C 17.984375 -33.9375 20.953125 -33.054688 23.203125 -31.296875 C 25.460938 -29.535156 26.675781 -27.082031 26.84375 -23.9375 L 18.015625 -23.9375 C 17.953125 -25.007812 17.554688 -25.851562 16.828125 -26.46875 C 16.097656 -27.09375 15.160156 -27.40625 14.015625 -27.40625 C 13.023438 -27.40625 12.226562 -27.144531 11.625 -26.625 C 11.019531 -26.101562 10.71875 -25.347656 10.71875 -24.359375 C 10.71875 -23.273438 11.226562 -22.429688 12.25 -21.828125 C 13.269531 -21.222656 14.859375 -20.570312 17.015625 -19.875 C 19.179688 -19.144531 20.9375 -18.445312 22.28125 -17.78125 C 23.632812 -17.113281 24.800781 -16.144531 25.78125 -14.875 C 26.769531 -13.601562 27.265625 -11.96875 27.265625 -9.96875 C 27.265625 -8.0625 26.78125 -6.328125 25.8125 -4.765625 C 24.84375 -3.210938 23.4375 -1.972656 21.59375 -1.046875 C 19.75 -0.128906 17.570312 0.328125 15.0625 0.328125 Z M 15.0625 0.328125 "/></g></g></g><g fill="#000000" fill-opacity="1"><g transform="translate(102.005831, 51.126314)"><g><path d="M 15.0625 0.328125 C 12.613281 0.328125 10.421875 -0.0664062 8.484375 -0.859375 C 6.546875 -1.648438 4.992188 -2.820312 3.828125 -4.375 C 2.671875 -5.9375 2.0625 -7.816406 2 -10.015625 L 10.671875 -10.015625 C 10.804688 -8.773438 11.238281 -7.828125 11.96875 -7.171875 C 12.695312 -6.523438 13.648438 -6.203125 14.828125 -6.203125 C 16.035156 -6.203125 16.988281 -6.476562 17.6875 -7.03125 C 18.382812 -7.582031 18.734375 -8.351562 18.734375 -9.34375 C 18.734375 -10.164062 18.453125 -10.847656 17.890625 -11.390625 C 17.335938 -11.929688 16.65625 -12.375 15.84375 -12.71875 C 15.039062 -13.070312 13.890625 -13.472656 12.390625 -13.921875 C 10.234375 -14.585938 8.46875 -15.253906 7.09375 -15.921875 C 5.726562 -16.585938 4.550781 -17.570312 3.5625 -18.875 C 2.582031 -20.175781 2.09375 -21.878906 2.09375 -23.984375 C 2.09375 -27.097656 3.21875 -29.535156 5.46875 -31.296875 C 7.726562 -33.054688 10.671875 -33.9375 14.296875 -33.9375 C 17.984375 -33.9375 20.953125 -33.054688 23.203125 -31.296875 C 25.460938 -29.535156 26.675781 -27.082031 26.84375 -23.9375 L 18.015625 -23.9375 C 17.953125 -25.007812 17.554688 -25.851562 16.828125 -26.46875 C 16.097656 -27.09375 15.160156 -27.40625 14.015625 -27.40625 C 13.023438 -27.40625 12.226562 -27.144531 11.625 -26.625 C 11.019531 -26.101562 10.71875 -25.347656 10.71875 -24.359375 C 10.71875 -23.273438 11.226562 -22.429688 12.25 -21.828125 C 13.269531 -21.222656 14.859375 -20.570312 17.015625 -19.875 C 19.179688 -19.144531 20.9375 -18.445312 22.28125 -17.78125 C 23.632812 -17.113281 24.800781 -16.144531 25.78125 -14.875 C 26.769531 -13.601562 27.265625 -11.96875 27.265625 -9.96875 C 27.265625 -8.0625 26.78125 -6.328125 25.8125 -4.765625 C 24.84375 -3.210938 23.4375 -1.972656 21.59375 -1.046875 C 19.75 -0.128906 17.570312 0.328125 15.0625 0.328125 Z M 15.0625 0.328125 "/></g></g></g><g fill="#000000" fill-opacity="1"><g transform="translate(132.274319, 51.126314)"><g><path d="M 11.109375 -26.9375 L 11.109375 -20.171875 L 22.03125 -20.171875 L 22.03125 -13.875 L 11.109375 -13.875 L 11.109375 -6.53125 L 23.453125 -6.53125 L 23.453125 0 L 2.953125 0 L 2.953125 -33.46875 L 23.453125 -33.46875 L 23.453125 -26.9375 Z M 11.109375 -26.9375 "/></g></g></g><g fill="#000000" fill-opacity="1"><g transform="translate(159.01547, 51.126314)"><g><path d="M 24.734375 -33.46875 L 24.734375 -26.9375 L 11.109375 -26.9375 L 11.109375 -19.875 L 21.3125 -19.875 L 21.3125 -13.53125 L 11.109375 -13.53125 L 11.109375 0 L 2.953125 0 L 2.953125 -33.46875 Z M 24.734375 -33.46875 "/></g></g></g></g></g><g transform="matrix(1, 0, 0, 1, 139, 198)"><g clip-path="url(#8dae3e5ad8)"><g fill="#000000" fill-opacity="1"><g transform="translate(0.986595, 15.944788)"><g><path d="M 9.4375 -2.921875 C 9.4375 -1.910156 9.03125 -1.148438 8.21875 -0.640625 C 7.550781 -0.210938 6.679688 0 5.609375 0 L 0.421875 0 L 0.421875 -0.40625 L 1.890625 -0.40625 L 1.890625 -10.3125 L 0.421875 -10.3125 L 0.421875 -10.71875 L 5.484375 -10.71875 C 6.367188 -10.71875 7.15625 -10.519531 7.84375 -10.125 C 8.644531 -9.6875 9.046875 -9.039062 9.046875 -8.1875 C 9.046875 -6.96875 8.28125 -6.175781 6.75 -5.8125 C 7.46875 -5.644531 8.09375 -5.316406 8.625 -4.828125 C 9.164062 -4.285156 9.4375 -3.648438 9.4375 -2.921875 Z M 7.265625 -8.328125 C 7.265625 -9.648438 6.671875 -10.3125 5.484375 -10.3125 L 3.703125 -10.3125 L 3.703125 -5.984375 L 5.484375 -5.984375 C 6.140625 -5.984375 6.609375 -6.164062 6.890625 -6.53125 C 7.140625 -6.84375 7.265625 -7.351562 7.265625 -8.0625 Z M 7.59375 -3.109375 C 7.59375 -4.753906 6.890625 -5.578125 5.484375 -5.578125 L 3.703125 -5.578125 L 3.703125 -0.40625 L 5.484375 -0.40625 C 6.242188 -0.40625 6.785156 -0.597656 7.109375 -0.984375 C 7.429688 -1.367188 7.59375 -1.945312 7.59375 -2.71875 Z M 7.59375 -3.109375 "/></g></g></g><g fill="#000000" fill-opacity="1"><g transform="translate(15.861311, 15.944788)"><g><path d="M 11.359375 -5.3125 C 11.359375 -3.832031 10.828125 -2.523438 9.765625 -1.390625 C 8.710938 -0.265625 7.453125 0.296875 5.984375 0.296875 C 4.523438 0.296875 3.253906 -0.273438 2.171875 -1.421875 C 1.128906 -2.535156 0.609375 -3.832031 0.609375 -5.3125 C 0.609375 -6.800781 1.132812 -8.101562 2.1875 -9.21875 C 3.238281 -10.332031 4.503906 -10.890625 5.984375 -10.890625 C 7.453125 -10.890625 8.710938 -10.332031 9.765625 -9.21875 C 10.828125 -8.101562 11.359375 -6.800781 11.359375 -5.3125 Z M 9.125 -6.09375 C 9.125 -7.457031 8.941406 -8.472656 8.578125 -9.140625 C 8.078125 -10.023438 7.210938 -10.46875 5.984375 -10.46875 C 4.773438 -10.46875 3.921875 -10.019531 3.421875 -9.125 C 3.046875 -8.445312 2.859375 -7.4375 2.859375 -6.09375 L 2.859375 -4.515625 C 2.859375 -1.597656 3.898438 -0.140625 5.984375 -0.140625 C 8.078125 -0.140625 9.125 -1.597656 9.125 -4.515625 Z M 9.125 -6.09375 "/></g></g></g><g fill="#000000" fill-opacity="1"><g transform="translate(32.329505, 15.944788)"><g><path d="M 9.21875 -2.6875 C 9.21875 -1.664062 8.875 -0.894531 8.1875 -0.375 C 7.570312 0.0703125 6.742188 0.296875 5.703125 0.296875 C 4.585938 0.296875 3.691406 0.078125 3.015625 -0.359375 C 2.191406 -0.867188 1.78125 -1.644531 1.78125 -2.6875 L 1.78125 -10.3125 L 0.296875 -10.3125 L 0.296875 -10.71875 L 5.046875 -10.71875 L 5.046875 -10.3125 L 3.59375 -10.3125 L 3.59375 -2.6875 C 3.59375 -1.882812 3.8125 -1.257812 4.25 -0.8125 C 4.6875 -0.363281 5.300781 -0.140625 6.09375 -0.140625 C 6.894531 -0.140625 7.539062 -0.363281 8.03125 -0.8125 C 8.53125 -1.269531 8.78125 -1.894531 8.78125 -2.6875 L 8.78125 -10.3125 L 7.3125 -10.3125 L 7.3125 -10.71875 L 10.6875 -10.71875 L 10.6875 -10.3125 L 9.21875 -10.3125 Z M 9.21875 -2.6875 "/></g></g></g><g fill="#000000" fill-opacity="1"><g transform="translate(47.884768, 15.944788)"><g><path d="M 9.734375 -7.5625 C 9.617188 -8.257812 9.421875 -8.847656 9.140625 -9.328125 C 8.734375 -9.984375 8.234375 -10.3125 7.640625 -10.3125 L 6.25 -10.3125 L 6.25 -0.40625 L 7.71875 -0.40625 L 7.71875 0 L 2.96875 0 L 2.96875 -0.40625 L 4.4375 -0.40625 L 4.4375 -10.3125 L 3.046875 -10.3125 C 2.441406 -10.3125 1.941406 -9.984375 1.546875 -9.328125 C 1.253906 -8.847656 1.054688 -8.257812 0.953125 -7.5625 L 0.453125 -7.5625 L 0.71875 -10.375 C 0.738281 -10.601562 0.875 -10.71875 1.125 -10.71875 L 9.5625 -10.71875 C 9.820312 -10.71875 9.960938 -10.601562 9.984375 -10.375 L 10.25 -7.5625 Z M 9.734375 -7.5625 "/></g></g></g><g fill="#000000" fill-opacity="1"><g transform="translate(63.124656, 15.944788)"><g><path d="M 0.671875 -0.40625 L 2.125 -0.40625 L 2.125 -10.3125 L 0.671875 -10.3125 L 0.671875 -10.71875 L 5.421875 -10.71875 L 5.421875 -10.3125 L 3.9375 -10.3125 L 3.9375 -0.40625 L 5.421875 -0.40625 L 5.421875 0 L 0.671875 0 Z M 0.671875 -0.40625 "/></g></g></g><g fill="#000000" fill-opacity="1"><g transform="translate(73.849675, 15.944788)"><g><path d="M 11.359375 -5.296875 C 11.359375 -4.015625 10.953125 -2.851562 10.140625 -1.8125 C 9.335938 -0.75 8.332031 -0.078125 7.125 0.203125 L 7.125 0.484375 C 7.125 2.335938 8.007812 3.265625 9.78125 3.265625 C 9.9375 3.265625 10.015625 3.328125 10.015625 3.453125 C 10.015625 3.566406 9.9375 3.625 9.78125 3.625 C 8.195312 3.625 7.066406 3.457031 6.390625 3.125 C 5.503906 2.6875 5.003906 1.828125 4.890625 0.546875 L 4.84375 0.203125 C 3.625 -0.0859375 2.613281 -0.757812 1.8125 -1.8125 C 1.007812 -2.875 0.609375 -4.035156 0.609375 -5.296875 C 0.609375 -6.785156 1.132812 -8.085938 2.1875 -9.203125 C 3.226562 -10.328125 4.492188 -10.890625 5.984375 -10.890625 C 7.453125 -10.890625 8.710938 -10.328125 9.765625 -9.203125 C 10.828125 -8.085938 11.359375 -6.785156 11.359375 -5.296875 Z M 9.125 -6.078125 C 9.125 -7.429688 8.941406 -8.453125 8.578125 -9.140625 C 8.085938 -10.023438 7.222656 -10.46875 5.984375 -10.46875 C 4.773438 -10.46875 3.921875 -10.015625 3.421875 -9.109375 C 3.046875 -8.429688 2.859375 -7.421875 2.859375 -6.078125 L 2.859375 -4.5 C 2.859375 -1.5625 3.898438 -0.09375 5.984375 -0.09375 C 8.078125 -0.09375 9.125 -1.5625 9.125 -4.5 Z M 9.125 -6.078125 "/></g></g></g><g fill="#000000" fill-opacity="1"><g transform="translate(90.135283, 15.944788)"><g><path d="M 9.21875 -2.6875 C 9.21875 -1.664062 8.875 -0.894531 8.1875 -0.375 C 7.570312 0.0703125 6.742188 0.296875 5.703125 0.296875 C 4.585938 0.296875 3.691406 0.078125 3.015625 -0.359375 C 2.191406 -0.867188 1.78125 -1.644531 1.78125 -2.6875 L 1.78125 -10.3125 L 0.296875 -10.3125 L 0.296875 -10.71875 L 5.046875 -10.71875 L 5.046875 -10.3125 L 3.59375 -10.3125 L 3.59375 -2.6875 C 3.59375 -1.882812 3.8125 -1.257812 4.25 -0.8125 C 4.6875 -0.363281 5.300781 -0.140625 6.09375 -0.140625 C 6.894531 -0.140625 7.539062 -0.363281 8.03125 -0.8125 C 8.53125 -1.269531 8.78125 -1.894531 8.78125 -2.6875 L 8.78125 -10.3125 L 7.3125 -10.3125 L 7.3125 -10.71875 L 10.6875 -10.71875 L 10.6875 -10.3125 L 9.21875 -10.3125 Z M 9.21875 -2.6875 "/></g></g></g><g fill="#000000" fill-opacity="1"><g transform="translate(105.690546, 15.944788)"><g><path d="M 9.1875 -0.578125 C 9.1875 -0.191406 9 0 8.625 0 L 0.515625 0 L 0.515625 -0.40625 L 1.953125 -0.40625 L 1.953125 -10.3125 L 0.484375 -10.3125 L 0.484375 -10.71875 L 8.203125 -10.71875 C 8.546875 -10.71875 8.71875 -10.566406 8.71875 -10.265625 L 8.71875 -7.875 C 8.71875 -7.6875 8.648438 -7.59375 8.515625 -7.59375 C 8.390625 -7.59375 8.320312 -7.691406 8.3125 -7.890625 C 8.269531 -8.484375 8.113281 -9.003906 7.84375 -9.453125 C 7.5 -10.023438 6.984375 -10.3125 6.296875 -10.3125 L 3.765625 -10.3125 L 3.765625 -5.84375 L 5.046875 -5.84375 C 5.472656 -5.84375 5.773438 -5.984375 5.953125 -6.265625 C 5.992188 -6.328125 6.039062 -6.4375 6.09375 -6.59375 C 6.144531 -6.757812 6.203125 -6.96875 6.265625 -7.21875 C 6.316406 -7.40625 6.382812 -7.5 6.46875 -7.5 C 6.582031 -7.5 6.640625 -7.410156 6.640625 -7.234375 L 6.640625 -4.046875 C 6.640625 -3.859375 6.582031 -3.765625 6.46875 -3.765625 C 6.382812 -3.765625 6.28125 -3.960938 6.15625 -4.359375 C 6.113281 -4.472656 6.078125 -4.59375 6.046875 -4.71875 C 6.015625 -4.84375 5.972656 -4.960938 5.921875 -5.078125 C 5.765625 -5.328125 5.472656 -5.453125 5.046875 -5.453125 L 3.765625 -5.453125 L 3.765625 -0.40625 L 6.4375 -0.40625 C 7.164062 -0.40625 7.695312 -0.640625 8.03125 -1.109375 C 8.289062 -1.484375 8.519531 -2.113281 8.71875 -3 C 8.769531 -3.257812 8.859375 -3.390625 8.984375 -3.390625 C 9.117188 -3.390625 9.1875 -3.238281 9.1875 -2.9375 Z M 9.1875 -0.578125 "/></g></g></g></g></g></svg>