<svg xmlns="http://www.w3.org/2000/svg" xmlns:xlink="http://www.w3.org/1999/xlink" width="1080" zoomAndPan="magnify" viewBox="85 295 640 210" height="210" preserveAspectRatio="xMidYMid meet" version="1.0"><defs><g/><clipPath id="4d179405ed"><path d="M 487 478 L 506 478 L 506 499 L 487 499 Z M 487 478 " clip-rule="nonzero"/></clipPath><clipPath id="3a2187396b"><path d="M 501.847656 499.398438 L 486.707031 482.339844 L 491.640625 477.960938 L 506.78125 495.019531 Z M 501.847656 499.398438 " clip-rule="nonzero"/></clipPath><clipPath id="71a23609be"><path d="M 495.179688 489.960938 C 491.835938 487.808594 488.523438 485.746094 487.609375 481.554688 L 490.539062 478.953125 C 491.628906 483.164062 495.03125 485.320312 498.316406 487.40625 C 501.660156 489.558594 504.972656 491.621094 505.886719 495.8125 L 502.957031 498.414062 C 501.867188 494.203125 498.464844 492.046875 495.179688 489.960938 Z M 495.179688 489.960938 " clip-rule="nonzero"/></clipPath><clipPath id="df4d3ac821"><path d="M 0.441406 0.800781 L 18.921875 0.800781 L 18.921875 20.480469 L 0.441406 20.480469 Z M 0.441406 0.800781 " clip-rule="nonzero"/></clipPath><clipPath id="f35401ed61"><path d="M 14.847656 21.398438 L -0.292969 4.339844 L 4.640625 -0.0390625 L 19.78125 17.019531 Z M 14.847656 21.398438 " clip-rule="nonzero"/></clipPath><clipPath id="bdf8f52bd1"><path d="M 8.179688 11.960938 C 4.835938 9.808594 1.523438 7.746094 0.609375 3.554688 L 3.539062 0.953125 C 4.628906 5.164062 8.03125 7.320312 11.316406 9.40625 C 14.660156 11.558594 17.972656 13.621094 18.886719 17.8125 L 15.957031 20.414062 C 14.867188 16.203125 11.464844 14.046875 8.179688 11.960938 Z M 8.179688 11.960938 " clip-rule="nonzero"/></clipPath><clipPath id="507cf36d6f"><rect x="0" width="19" y="0" height="21"/></clipPath><clipPath id="9e2a7df0a6"><path d="M 546.328125 316.78125 L 618.894531 316.78125 L 618.894531 324.699219 L 546.328125 324.699219 Z M 546.328125 316.78125 " clip-rule="nonzero"/></clipPath><clipPath id="15ee39455b"><path d="M 546.328125 364.675781 L 618.894531 364.675781 L 618.894531 372.59375 L 546.328125 372.59375 Z M 546.328125 364.675781 " clip-rule="nonzero"/></clipPath><clipPath id="23ac1b9508"><path d="M 546.328125 413.363281 L 618.894531 413.363281 L 618.894531 421.28125 L 546.328125 421.28125 Z M 546.328125 413.363281 " clip-rule="nonzero"/></clipPath><clipPath id="3fb144f27b"><path d="M 289.429688 311.570312 L 327.234375 311.570312 L 327.234375 361.707031 L 289.429688 361.707031 Z M 289.429688 311.570312 " clip-rule="nonzero"/></clipPath><clipPath id="8d013f97eb"><path d="M 285.566406 350.558594 L 315.007812 308.355469 L 342.0625 327.230469 L 312.621094 369.433594 Z M 285.566406 350.558594 " clip-rule="nonzero"/></clipPath><clipPath id="b976ff8ffe"><path d="M 285.566406 350.558594 L 315.007812 308.355469 L 342.0625 327.230469 L 312.621094 369.433594 Z M 285.566406 350.558594 " clip-rule="nonzero"/></clipPath><clipPath id="e8e03b7c2a"><path d="M 285.632812 350.621094 L 315.074219 308.417969 L 342.125 327.289062 L 312.683594 369.492188 Z M 285.632812 350.621094 " clip-rule="nonzero"/></clipPath></defs><g fill="#000000" fill-opacity="1"><g transform="translate(191.747866, 493.434811)"><g><path d="M 18.234375 -15.4375 C 19.847656 -15.007812 21.109375 -14.160156 22.015625 -12.890625 C 22.921875 -11.628906 23.375 -10.15625 23.375 -8.46875 C 23.375 -6.664062 22.976562 -5.128906 22.1875 -3.859375 C 21.394531 -2.585938 20.269531 -1.625 18.8125 -0.96875 C 17.351562 -0.320312 15.644531 0 13.6875 0 L 3.40625 0 L 3.40625 -29.34375 L 13.03125 -29.34375 C 16.113281 -29.34375 18.476562 -28.703125 20.125 -27.421875 C 21.78125 -26.148438 22.609375 -24.179688 22.609375 -21.515625 C 22.609375 -20.171875 22.222656 -18.960938 21.453125 -17.890625 C 20.679688 -16.828125 19.609375 -16.007812 18.234375 -15.4375 Z M 7.3125 -26.171875 L 7.3125 -16.828125 L 13.140625 -16.828125 C 14.242188 -16.828125 15.210938 -17.015625 16.046875 -17.390625 C 16.890625 -17.765625 17.539062 -18.304688 18 -19.015625 C 18.46875 -19.734375 18.703125 -20.582031 18.703125 -21.5625 C 18.703125 -23.15625 18.238281 -24.320312 17.3125 -25.0625 C 16.382812 -25.800781 14.957031 -26.171875 13.03125 -26.171875 Z M 13.6875 -3.140625 C 15.5 -3.140625 16.914062 -3.613281 17.9375 -4.5625 C 18.957031 -5.507812 19.46875 -6.796875 19.46875 -8.421875 C 19.46875 -10.117188 19.007812 -11.425781 18.09375 -12.34375 C 17.175781 -13.269531 15.765625 -13.734375 13.859375 -13.734375 L 7.3125 -13.734375 L 7.3125 -3.140625 Z M 13.6875 -3.140625 "/></g></g></g><g fill="#000000" fill-opacity="1"><g transform="translate(250.475589, 493.434811)"><g><path d="M 26 -13.71875 C 26 -10.820312 25.515625 -8.3125 24.546875 -6.1875 C 23.585938 -4.0625 22.222656 -2.429688 20.453125 -1.296875 C 18.679688 -0.160156 16.601562 0.40625 14.21875 0.40625 C 11.914062 0.40625 9.863281 -0.160156 8.0625 -1.296875 C 6.269531 -2.441406 4.875 -4.078125 3.875 -6.203125 C 2.875 -8.335938 2.375 -10.84375 2.375 -13.71875 L 2.375 -15.59375 C 2.375 -18.46875 2.867188 -20.972656 3.859375 -23.109375 C 4.859375 -25.242188 6.25 -26.878906 8.03125 -28.015625 C 9.820312 -29.160156 11.875 -29.734375 14.1875 -29.734375 C 16.5625 -29.734375 18.640625 -29.160156 20.421875 -28.015625 C 22.203125 -26.878906 23.578125 -25.242188 24.546875 -23.109375 C 25.515625 -20.984375 26 -18.476562 26 -15.59375 Z M 22.125 -15.640625 C 22.125 -17.941406 21.8125 -19.898438 21.1875 -21.515625 C 20.5625 -23.140625 19.65625 -24.367188 18.46875 -25.203125 C 17.28125 -26.035156 15.851562 -26.453125 14.1875 -26.453125 C 12.582031 -26.453125 11.179688 -26.03125 9.984375 -25.1875 C 8.796875 -24.351562 7.878906 -23.125 7.234375 -21.5 C 6.585938 -19.882812 6.265625 -17.929688 6.265625 -15.640625 L 6.265625 -13.71875 C 6.265625 -11.40625 6.585938 -9.4375 7.234375 -7.8125 C 7.890625 -6.1875 8.816406 -4.953125 10.015625 -4.109375 C 11.210938 -3.273438 12.613281 -2.859375 14.21875 -2.859375 C 16.75 -2.859375 18.695312 -3.789062 20.0625 -5.65625 C 21.4375 -7.53125 22.125 -10.21875 22.125 -13.71875 Z M 22.125 -15.640625 "/></g></g></g><g fill="#000000" fill-opacity="1"><g transform="translate(311.903053, 493.434811)"><g><path d="M 24.078125 -9.484375 C 24.078125 -7.367188 23.597656 -5.5625 22.640625 -4.0625 C 21.679688 -2.570312 20.390625 -1.453125 18.765625 -0.703125 C 17.148438 0.0351562 15.367188 0.40625 13.421875 0.40625 C 11.378906 0.40625 9.5625 0.0351562 7.96875 -0.703125 C 6.375 -1.453125 5.117188 -2.566406 4.203125 -4.046875 C 3.285156 -5.535156 2.828125 -7.347656 2.828125 -9.484375 L 2.828125 -29.34375 L 6.6875 -29.34375 L 6.6875 -9.484375 C 6.6875 -7.253906 7.285156 -5.570312 8.484375 -4.4375 C 9.691406 -3.300781 11.335938 -2.734375 13.421875 -2.734375 C 15.515625 -2.734375 17.160156 -3.300781 18.359375 -4.4375 C 19.554688 -5.570312 20.15625 -7.253906 20.15625 -9.484375 L 20.15625 -29.34375 L 24.078125 -29.34375 Z M 24.078125 -9.484375 "/></g></g></g><g fill="#000000" fill-opacity="1"><g transform="translate(371.678437, 493.434811)"><g><path d="M 23.671875 -26.171875 L 14.265625 -26.171875 L 14.265625 0 L 10.390625 0 L 10.390625 -26.171875 L 1 -26.171875 L 1 -29.34375 L 23.671875 -29.34375 Z M 23.671875 -26.171875 "/></g></g></g><g fill="#000000" fill-opacity="1"><g transform="translate(429.318205, 493.434811)"><g><path d="M 3.6875 0 L 3.6875 -29.34375 L 7.59375 -29.34375 L 7.59375 0 Z M 3.6875 0 "/></g></g></g><g fill="#000000" fill-opacity="1"><g transform="translate(473.58015, 493.434811)"><g><path d="M 26 -13.71875 C 26 -10.820312 25.515625 -8.3125 24.546875 -6.1875 C 23.585938 -4.0625 22.222656 -2.429688 20.453125 -1.296875 C 18.679688 -0.160156 16.601562 0.40625 14.21875 0.40625 C 11.914062 0.40625 9.863281 -0.160156 8.0625 -1.296875 C 6.269531 -2.441406 4.875 -4.078125 3.875 -6.203125 C 2.875 -8.335938 2.375 -10.84375 2.375 -13.71875 L 2.375 -15.59375 C 2.375 -18.46875 2.867188 -20.972656 3.859375 -23.109375 C 4.859375 -25.242188 6.25 -26.878906 8.03125 -28.015625 C 9.820312 -29.160156 11.875 -29.734375 14.1875 -29.734375 C 16.5625 -29.734375 18.640625 -29.160156 20.421875 -28.015625 C 22.203125 -26.878906 23.578125 -25.242188 24.546875 -23.109375 C 25.515625 -20.984375 26 -18.476562 26 -15.59375 Z M 22.125 -15.640625 C 22.125 -17.941406 21.8125 -19.898438 21.1875 -21.515625 C 20.5625 -23.140625 19.65625 -24.367188 18.46875 -25.203125 C 17.28125 -26.035156 15.851562 -26.453125 14.1875 -26.453125 C 12.582031 -26.453125 11.179688 -26.03125 9.984375 -25.1875 C 8.796875 -24.351562 7.878906 -23.125 7.234375 -21.5 C 6.585938 -19.882812 6.265625 -17.929688 6.265625 -15.640625 L 6.265625 -13.71875 C 6.265625 -11.40625 6.585938 -9.4375 7.234375 -7.8125 C 7.890625 -6.1875 8.816406 -4.953125 10.015625 -4.109375 C 11.210938 -3.273438 12.613281 -2.859375 14.21875 -2.859375 C 16.75 -2.859375 18.695312 -3.789062 20.0625 -5.65625 C 21.4375 -7.53125 22.125 -10.21875 22.125 -13.71875 Z M 22.125 -15.640625 "/></g></g></g><g fill="#000000" fill-opacity="1"><g transform="translate(535.007614, 493.434811)"><g><path d="M 24.078125 -9.484375 C 24.078125 -7.367188 23.597656 -5.5625 22.640625 -4.0625 C 21.679688 -2.570312 20.390625 -1.453125 18.765625 -0.703125 C 17.148438 0.0351562 15.367188 0.40625 13.421875 0.40625 C 11.378906 0.40625 9.5625 0.0351562 7.96875 -0.703125 C 6.375 -1.453125 5.117188 -2.566406 4.203125 -4.046875 C 3.285156 -5.535156 2.828125 -7.347656 2.828125 -9.484375 L 2.828125 -29.34375 L 6.6875 -29.34375 L 6.6875 -9.484375 C 6.6875 -7.253906 7.285156 -5.570312 8.484375 -4.4375 C 9.691406 -3.300781 11.335938 -2.734375 13.421875 -2.734375 C 15.515625 -2.734375 17.160156 -3.300781 18.359375 -4.4375 C 19.554688 -5.570312 20.15625 -7.253906 20.15625 -9.484375 L 20.15625 -29.34375 L 24.078125 -29.34375 Z M 24.078125 -9.484375 "/></g></g></g><g fill="#000000" fill-opacity="1"><g transform="translate(594.782986, 493.434811)"><g><path d="M 22.046875 -3.140625 L 22.046875 0 L 3.40625 0 L 3.40625 -29.34375 L 21.84375 -29.34375 L 21.84375 -26.171875 L 7.3125 -26.171875 L 7.3125 -16.71875 L 19.984375 -16.71875 L 19.984375 -13.578125 L 7.3125 -13.578125 L 7.3125 -3.140625 Z M 22.046875 -3.140625 "/></g></g></g><g clip-path="url(#4d179405ed)"><g clip-path="url(#3a2187396b)"><g clip-path="url(#71a23609be)"><g transform="matrix(1, 0, 0, 1, 487, 478)"><g clip-path="url(#507cf36d6f)"><g clip-path="url(#df4d3ac821)"><g clip-path="url(#f35401ed61)"><g clip-path="url(#bdf8f52bd1)"><path fill="#6d8157" d="M 14.847656 21.398438 L -0.292969 4.339844 L 4.640625 -0.0390625 L 19.78125 17.019531 Z M 14.847656 21.398438 " fill-opacity="1" fill-rule="nonzero"/></g></g></g></g></g></g></g></g><path fill="#000000" d="M 188.097656 310.777344 L 151.550781 380.445312 L 151.550781 424.84375 L 140.136719 424.84375 L 140.136719 380.445312 L 103.257812 310.777344 L 116.1875 310.777344 L 145.875 370.019531 L 175.429688 310.777344 L 188.164062 310.777344 Z M 188.097656 310.777344 " fill-opacity="1" fill-rule="nonzero"/><path fill="#000000" d="M 306.648438 361.378906 C 306.847656 363.421875 306.980469 365.601562 306.980469 367.777344 C 306.980469 377.476562 305 385.984375 301.109375 393.308594 C 297.214844 400.632812 291.871094 406.304688 285.144531 410.199219 C 278.414062 414.089844 270.761719 416.070312 262.316406 416.070312 C 253.871094 416.070312 246.21875 414.089844 239.425781 410.199219 C 232.695312 406.304688 227.351562 400.632812 223.457031 393.308594 C 219.566406 385.984375 217.585938 377.476562 217.585938 367.777344 C 217.585938 358.078125 219.566406 349.636719 223.457031 342.3125 C 227.351562 334.988281 232.695312 329.449219 239.425781 325.488281 C 246.152344 321.597656 253.804688 319.617188 262.316406 319.617188 C 270.828125 319.617188 278.414062 321.597656 285.144531 325.488281 C 290.289062 328.457031 294.578125 332.417969 298.074219 337.363281 C 298.335938 332.878906 299.523438 328.65625 301.832031 324.960938 C 298.667969 321.859375 295.105469 319.15625 291.144531 316.914062 C 282.570312 311.964844 272.9375 309.457031 262.25 309.457031 C 251.5625 309.457031 242.128906 311.964844 233.488281 316.914062 C 224.910156 321.859375 218.113281 328.789062 213.167969 337.628906 C 208.21875 346.46875 205.777344 356.5625 205.777344 367.710938 C 205.777344 378.859375 208.285156 388.953125 213.167969 397.792969 C 218.113281 406.636719 224.910156 413.5625 233.488281 418.511719 C 242.0625 423.457031 251.628906 425.898438 262.25 425.898438 C 272.871094 425.898438 282.503906 423.390625 291.144531 418.511719 C 299.722656 413.5625 306.519531 406.636719 311.398438 397.792969 C 316.28125 388.953125 318.722656 378.859375 318.722656 367.710938 C 318.722656 356.5625 318.589844 362.632812 318.328125 360.125 C 314.894531 362.105469 310.34375 362.699219 306.648438 361.3125 Z M 306.648438 361.378906 " fill-opacity="1" fill-rule="nonzero"/><path fill="#000000" d="M 380.40625 426.03125 C 372.886719 426.03125 366.289062 424.710938 360.550781 422.136719 C 354.808594 419.566406 350.324219 415.871094 347.089844 411.1875 C 343.859375 406.503906 342.078125 401.292969 341.878906 395.484375 L 353.953125 395.484375 C 354.480469 401.027344 356.921875 405.910156 361.273438 410.066406 C 365.628906 414.222656 372.027344 416.332031 380.40625 416.332031 C 388.785156 416.332031 394.261719 414.355469 398.746094 410.394531 C 403.234375 406.4375 405.542969 401.355469 405.542969 395.289062 C 405.542969 389.21875 404.289062 386.449219 401.78125 383.480469 C 399.273438 380.511719 396.175781 378.265625 392.480469 376.816406 C 388.785156 375.363281 383.640625 373.714844 377.109375 372 C 369.457031 369.953125 363.453125 367.910156 358.964844 365.996094 C 354.480469 364.015625 350.71875 360.980469 347.550781 356.824219 C 344.386719 352.667969 342.800781 347.0625 342.800781 340.003906 C 342.800781 332.945312 344.320312 328.855469 347.355469 324.234375 C 350.390625 319.617188 354.675781 315.988281 360.285156 313.351562 C 365.894531 310.710938 372.226562 309.457031 379.417969 309.457031 C 389.972656 309.457031 398.484375 312.03125 404.949219 317.242188 C 411.414062 322.386719 415.175781 329.050781 416.164062 337.230469 L 403.761719 337.230469 C 402.96875 332.546875 400.460938 328.390625 396.109375 324.761719 C 391.753906 321.136719 385.882812 319.289062 378.492188 319.289062 C 371.105469 319.289062 365.894531 321.136719 361.339844 324.761719 C 356.789062 328.390625 354.480469 333.40625 354.480469 339.671875 C 354.480469 345.941406 355.734375 348.316406 358.238281 351.285156 C 360.746094 354.1875 363.847656 356.429688 367.609375 357.949219 C 371.367188 359.464844 376.449219 361.113281 382.847656 362.828125 C 390.238281 364.875 396.238281 366.917969 400.792969 368.964844 C 405.34375 371.011719 409.238281 374.042969 412.402344 378.199219 C 415.570312 382.355469 417.152344 387.898438 417.152344 394.824219 C 417.152344 401.753906 415.769531 405.25 412.929688 410 C 410.09375 414.816406 405.9375 418.640625 400.394531 421.609375 C 394.855469 424.511719 388.191406 426.03125 380.472656 426.03125 Z M 380.40625 426.03125 " fill-opacity="1" fill-rule="nonzero"/><path fill="#000000" d="M 479.957031 426.03125 C 472.4375 426.03125 465.839844 424.710938 460.101562 422.136719 C 454.363281 419.566406 449.875 415.871094 446.644531 411.1875 C 443.410156 406.503906 441.628906 401.292969 441.429688 395.484375 L 453.503906 395.484375 C 454.03125 401.027344 456.472656 405.910156 460.828125 410.066406 C 465.179688 414.222656 471.582031 416.332031 479.957031 416.332031 C 488.335938 416.332031 493.8125 414.355469 498.300781 410.394531 C 502.785156 406.4375 505.09375 401.355469 505.09375 395.289062 C 505.09375 389.21875 503.839844 386.449219 501.332031 383.480469 C 498.828125 380.511719 495.726562 378.265625 492.03125 376.816406 C 488.335938 375.363281 483.191406 373.714844 476.660156 372 C 469.007812 369.953125 463.003906 367.910156 458.519531 365.996094 C 454.03125 364.015625 450.269531 360.980469 447.105469 356.824219 C 443.9375 352.667969 442.355469 347.0625 442.355469 340.003906 C 442.355469 332.945312 443.871094 328.855469 446.90625 324.234375 C 449.941406 319.617188 454.230469 315.988281 459.835938 313.351562 C 465.445312 310.710938 471.777344 309.457031 478.96875 309.457031 C 489.523438 309.457031 498.035156 312.03125 504.5 317.242188 C 510.964844 322.386719 514.726562 329.050781 515.714844 337.230469 L 503.3125 337.230469 C 502.519531 332.546875 500.015625 328.390625 495.660156 324.761719 C 491.304688 321.136719 485.433594 319.289062 478.046875 319.289062 C 470.65625 319.289062 465.445312 321.136719 460.894531 324.761719 C 456.339844 328.390625 454.03125 333.40625 454.03125 339.671875 C 454.03125 345.941406 455.285156 348.316406 457.792969 351.285156 C 460.300781 354.1875 463.398438 356.429688 467.160156 357.949219 C 470.921875 359.464844 476 361.113281 482.398438 362.828125 C 489.789062 364.875 495.792969 366.917969 500.34375 368.964844 C 504.894531 371.011719 508.789062 374.042969 511.957031 378.199219 C 515.121094 382.355469 516.707031 387.898438 516.707031 394.824219 C 516.707031 401.753906 515.320312 405.25 512.484375 410 C 509.644531 414.816406 505.488281 418.640625 499.949219 421.609375 C 494.40625 424.511719 487.742188 426.03125 480.023438 426.03125 Z M 479.957031 426.03125 " fill-opacity="1" fill-rule="nonzero"/><path fill="#000000" d="M 708.550781 310.777344 L 708.550781 320.277344 L 658.28125 320.277344 L 658.28125 362.894531 L 700.703125 362.894531 L 700.703125 372.394531 L 658.28125 372.394531 L 658.28125 424.976562 L 646.867188 424.976562 L 646.867188 310.84375 L 708.550781 310.84375 Z M 708.550781 310.777344 " fill-opacity="1" fill-rule="nonzero"/><g clip-path="url(#9e2a7df0a6)"><path fill="#000000" d="M 382.054688 326.480469 L 382.054688 315.988281 L 651.222656 315.988281 L 651.222656 326.480469 L 382.054688 326.480469 " fill-opacity="1" fill-rule="nonzero"/></g><g clip-path="url(#15ee39455b)"><path fill="#000000" d="M 382.054688 374.441406 L 382.054688 363.949219 L 651.222656 363.949219 L 651.222656 374.441406 L 382.054688 374.441406 " fill-opacity="1" fill-rule="nonzero"/></g><g clip-path="url(#23ac1b9508)"><path fill="#000000" d="M 382.054688 423.0625 L 382.054688 412.574219 L 651.222656 412.574219 L 651.222656 423.0625 L 382.054688 423.0625 " fill-opacity="1" fill-rule="nonzero"/></g><g clip-path="url(#3fb144f27b)"><g clip-path="url(#8d013f97eb)"><g clip-path="url(#b976ff8ffe)"><g clip-path="url(#e8e03b7c2a)"><path fill="#6d8157" d="M 293.390625 354.648438 C 303.085938 357.289062 314.238281 354.449219 314.238281 354.449219 C 306.648438 358.671875 299.328125 357.289062 299.328125 357.289062 C 307.242188 363.753906 319.777344 363.027344 327.234375 348.25 C 322.746094 351.546875 305.988281 343.699219 298.863281 353.726562 C 297.148438 354.386719 295.105469 353.855469 294.246094 353.660156 C 300.84375 347.0625 309.421875 337.230469 313.511719 328.789062 C 313.511719 328.789062 311.53125 335.847656 298.996094 350.359375 C 329.34375 345.015625 319.117188 316.847656 319.644531 311.699219 C 313.113281 323.046875 307.769531 319.222656 302.03125 327.269531 C 295.632812 336.175781 300.644531 355.109375 289.957031 353.726562 L 293.519531 354.714844 Z M 293.390625 354.648438 " fill-opacity="1" fill-rule="evenodd"/></g></g></g></g></svg>